<svg width="136" height="40" viewBox="0 0 136 40" fill="none" xmlns="http://www.w3.org/2000/svg">
<rect x="0.882812" y="0.5" width="134" height="39" rx="6.5" fill="black"/>
<rect x="0.882812" y="0.5" width="134" height="39" rx="6.5" stroke="#A6A6A6"/>
<path d="M81.9095 19.2004V21.4914H80.4734V22.9938H81.9095V28.0988C81.9095 29.842 82.698 30.5392 84.6819 30.5392C85.0306 30.5392 85.3626 30.4977 85.6531 30.4479V28.9621C85.4041 28.987 85.2464 29.0036 84.9725 29.0036C84.0843 29.0036 83.6941 28.5886 83.6941 27.6423V22.9938H85.6531V21.4914H83.6941V19.2004H81.9095Z" fill="white"/>
<path d="M90.707 30.6638C93.3466 30.6638 94.9653 28.8957 94.9653 25.9655C94.9653 23.0519 93.3383 21.2756 90.707 21.2756C88.0673 21.2756 86.4404 23.0519 86.4404 25.9655C86.4404 28.8957 88.059 30.6638 90.707 30.6638ZM90.707 29.0783C89.1547 29.0783 88.2831 27.9411 88.2831 25.9655C88.2831 24.0065 89.1547 22.861 90.707 22.861C92.2509 22.861 93.1308 24.0065 93.1308 25.9655C93.1308 27.9328 92.2509 29.0783 90.707 29.0783Z" fill="white"/>
<path d="M96.3502 30.4894H98.1348V25.152C98.1348 23.882 99.0894 23.027 100.442 23.027C100.758 23.027 101.289 23.0851 101.439 23.1349V21.3752C101.248 21.3254 100.907 21.3005 100.642 21.3005C99.463 21.3005 98.4586 21.9479 98.2012 22.8361H98.0684V21.4499H96.3502V30.4894Z" fill="white"/>
<path d="M105.87 22.7946C107.19 22.7946 108.053 23.716 108.094 25.1354H103.529C103.629 23.7243 104.55 22.7946 105.87 22.7946ZM108.086 28.049C107.754 28.7546 107.015 29.1447 105.936 29.1447C104.509 29.1447 103.587 28.1403 103.529 26.5549V26.4553H109.912V25.8327C109.912 22.9938 108.393 21.2756 105.878 21.2756C103.33 21.2756 101.711 23.11 101.711 25.9987C101.711 28.8874 103.297 30.6638 105.886 30.6638C107.953 30.6638 109.398 29.6677 109.804 28.049H108.086Z" fill="white"/>
<path d="M70.2059 27.1513C70.3435 29.371 72.1933 30.7906 74.9464 30.7906C77.8888 30.7906 79.73 29.3021 79.73 26.9276C79.73 25.0606 78.6804 24.0282 76.1337 23.4346L74.7658 23.099C73.1483 22.7205 72.4944 22.2129 72.4944 21.3267C72.4944 20.2082 73.5096 19.4769 75.0325 19.4769C76.4779 19.4769 77.4759 20.191 77.6565 21.3353H79.5321C79.4203 19.2446 77.5791 17.7734 75.0583 17.7734C72.3482 17.7734 70.5414 19.2446 70.5414 21.4557C70.5414 23.2797 71.5652 24.3637 73.8108 24.8885L75.411 25.2757C77.0543 25.6629 77.777 26.2307 77.777 27.1771C77.777 28.2783 76.6413 29.0785 75.0927 29.0785C73.4322 29.0785 72.2793 28.33 72.1159 27.1513H70.2059Z" fill="white"/>
<path d="M51.7186 21.3005C50.49 21.3005 49.4275 21.9147 48.8797 22.944H48.7469V21.4499H47.0286V33.4943H48.8133V29.1198H48.9544C49.4275 30.0744 50.4485 30.6388 51.7352 30.6388C54.0179 30.6388 55.4705 28.8376 55.4705 25.9655C55.4705 23.0934 54.0179 21.3005 51.7186 21.3005ZM51.2122 29.0368C49.7181 29.0368 48.7801 27.8581 48.7801 25.9738C48.7801 24.0812 49.7181 22.9025 51.2205 22.9025C52.7313 22.9025 53.636 24.0563 53.636 25.9655C53.636 27.883 52.7313 29.0368 51.2122 29.0368Z" fill="white"/>
<path d="M61.7154 21.3005C60.4868 21.3005 59.4243 21.9147 58.8765 22.944H58.7437V21.4499H57.0254V33.4943H58.8101V29.1198H58.9512C59.4243 30.0744 60.4453 30.6388 61.732 30.6388C64.0147 30.6388 65.4673 28.8376 65.4673 25.9655C65.4673 23.0934 64.0147 21.3005 61.7154 21.3005ZM61.209 29.0368C59.7149 29.0368 58.7769 27.8581 58.7769 25.9738C58.7769 24.0812 59.7149 22.9025 61.2173 22.9025C62.728 22.9025 63.6328 24.0563 63.6328 25.9655C63.6328 27.883 62.728 29.0368 61.209 29.0368Z" fill="white"/>
<path d="M43.8266 30.4894H45.8742L41.3918 18.0746H39.3184L34.8359 30.4894H36.8147L37.959 27.1943H42.6909L43.8266 30.4894ZM40.2562 20.3287H40.4024L42.2005 25.5768H38.4494L40.2562 20.3287Z" fill="white"/>
<path d="M36.0332 8.71069V14.6997H38.1956C39.9802 14.6997 41.0137 13.5999 41.0137 11.6865C41.0137 9.80225 39.9719 8.71069 38.1956 8.71069H36.0332ZM36.9629 9.55737H38.0918C39.3328 9.55737 40.0674 10.3459 40.0674 11.699C40.0674 13.0728 39.3452 13.853 38.0918 13.853H36.9629V9.55737Z" fill="white"/>
<path d="M44.1788 14.7869C45.4986 14.7869 46.3079 13.9028 46.3079 12.4377C46.3079 10.981 45.4944 10.0928 44.1788 10.0928C42.8589 10.0928 42.0455 10.981 42.0455 12.4377C42.0455 13.9028 42.8548 14.7869 44.1788 14.7869ZM44.1788 13.9941C43.4026 13.9941 42.9668 13.4255 42.9668 12.4377C42.9668 11.4583 43.4026 10.8855 44.1788 10.8855C44.9507 10.8855 45.3907 11.4583 45.3907 12.4377C45.3907 13.4214 44.9507 13.9941 44.1788 13.9941Z" fill="white"/>
<path d="M53.2 10.1799H52.3077L51.5025 13.6289H51.432L50.5023 10.1799H49.6473L48.7176 13.6289H48.6512L47.8419 10.1799H46.9371L48.1822 14.6997H49.0995L50.0292 11.3711H50.0997L51.0335 14.6997H51.9591L53.2 10.1799Z" fill="white"/>
<path d="M54.2277 14.6997H55.12V12.0559C55.12 11.3503 55.5392 10.9104 56.1991 10.9104C56.859 10.9104 57.1745 11.2715 57.1745 11.9978V14.6997H58.0668V11.7737C58.0668 10.6987 57.5106 10.0928 56.5021 10.0928C55.8214 10.0928 55.3732 10.3958 55.1532 10.8979H55.0868V10.1799H54.2277V14.6997Z" fill="white"/>
<path d="M59.4721 14.6997H60.3645V8.41602H59.4721V14.6997Z" fill="white"/>
<path d="M63.7205 14.7869C65.0403 14.7869 65.8496 13.9028 65.8496 12.4377C65.8496 10.981 65.0361 10.0928 63.7205 10.0928C62.4006 10.0928 61.5872 10.981 61.5872 12.4377C61.5872 13.9028 62.3965 14.7869 63.7205 14.7869ZM63.7205 13.9941C62.9443 13.9941 62.5085 13.4255 62.5085 12.4377C62.5085 11.4583 62.9443 10.8855 63.7205 10.8855C64.4924 10.8855 64.9324 11.4583 64.9324 12.4377C64.9324 13.4214 64.4924 13.9941 63.7205 13.9941Z" fill="white"/>
<path d="M68.5083 14.0232C68.0228 14.0232 67.67 13.7866 67.67 13.3799C67.67 12.9814 67.9522 12.7698 68.5748 12.7283L69.6788 12.6577V13.0354C69.6788 13.5957 69.1807 14.0232 68.5083 14.0232ZM68.2801 14.7744C68.8736 14.7744 69.3675 14.5171 69.6373 14.0647H69.7078V14.6997H70.5669V11.6118C70.5669 10.6572 69.9278 10.0928 68.7947 10.0928C67.7696 10.0928 67.0391 10.5908 66.9478 11.3669H67.8111C67.9107 11.0474 68.2552 10.8647 68.7532 10.8647C69.3633 10.8647 69.6788 11.1345 69.6788 11.6118V12.002L68.4544 12.0725C67.3794 12.1389 66.7735 12.6079 66.7735 13.4214C66.7735 14.2473 67.4085 14.7744 68.2801 14.7744Z" fill="white"/>
<path d="M73.5951 14.7744C74.2176 14.7744 74.7447 14.4797 75.0145 13.9858H75.0851V14.6997H75.94V8.41602H75.0477V10.8979H74.9813C74.7364 10.3999 74.2135 10.1052 73.5951 10.1052C72.4537 10.1052 71.7191 11.01 71.7191 12.4377C71.7191 13.8696 72.4454 14.7744 73.5951 14.7744ZM73.8482 10.9062C74.5953 10.9062 75.0643 11.4998 75.0643 12.4419C75.0643 13.3882 74.5995 13.9734 73.8482 13.9734C73.0929 13.9734 72.6405 13.3965 72.6405 12.4377C72.6405 11.4873 73.097 10.9062 73.8482 10.9062Z" fill="white"/>
<path d="M81.7265 14.7869C83.0463 14.7869 83.8557 13.9028 83.8557 12.4377C83.8557 10.981 83.0422 10.0928 81.7265 10.0928C80.4067 10.0928 79.5932 10.981 79.5932 12.4377C79.5932 13.9028 80.4025 14.7869 81.7265 14.7869ZM81.7265 13.9941C80.9504 13.9941 80.5146 13.4255 80.5146 12.4377C80.5146 11.4583 80.9504 10.8855 81.7265 10.8855C82.4985 10.8855 82.9384 11.4583 82.9384 12.4377C82.9384 13.4214 82.4985 13.9941 81.7265 13.9941Z" fill="white"/>
<path d="M85.0369 14.6997H85.9292V12.0559C85.9292 11.3503 86.3484 10.9104 87.0083 10.9104C87.6682 10.9104 87.9836 11.2715 87.9836 11.9978V14.6997H88.876V11.7737C88.876 10.6987 88.3198 10.0928 87.3113 10.0928C86.6306 10.0928 86.1824 10.3958 85.9624 10.8979H85.896V10.1799H85.0369V14.6997Z" fill="white"/>
<path d="M92.9857 9.05518V10.2007H92.2677V10.9519H92.9857V13.5044C92.9857 14.376 93.38 14.7246 94.3719 14.7246C94.5462 14.7246 94.7123 14.7039 94.8575 14.679V13.936C94.733 13.9485 94.6541 13.9568 94.5172 13.9568C94.0731 13.9568 93.878 13.7493 93.878 13.2761V10.9519H94.8575V10.2007H93.878V9.05518H92.9857Z" fill="white"/>
<path d="M96.0553 14.6997H96.9477V12.0601C96.9477 11.3752 97.3544 10.9146 98.0849 10.9146C98.7157 10.9146 99.0519 11.2798 99.0519 12.002V14.6997H99.9442V11.782C99.9442 10.707 99.3507 10.0969 98.3878 10.0969C97.7072 10.0969 97.2299 10.3999 97.0099 10.9062H96.9394V8.41602H96.0553V14.6997Z" fill="white"/>
<path d="M103.163 10.8523C103.823 10.8523 104.255 11.313 104.276 12.0227H101.993C102.043 11.3171 102.503 10.8523 103.163 10.8523ZM104.271 13.4795C104.105 13.8323 103.736 14.0273 103.196 14.0273C102.483 14.0273 102.022 13.5251 101.993 12.7324V12.6826H105.185V12.3713C105.185 10.9519 104.425 10.0928 103.167 10.0928C101.893 10.0928 101.084 11.01 101.084 12.4543C101.084 13.8987 101.877 14.7869 103.172 14.7869C104.205 14.7869 104.927 14.2888 105.131 13.4795H104.271Z" fill="white"/>
<path d="M25.1528 20.3011C25.1744 18.6201 26.0772 17.0295 27.5093 16.149C26.6059 14.8587 25.0926 14.0406 23.5182 13.9913C21.8389 13.8151 20.211 14.9962 19.3553 14.9962C18.483 14.9962 17.1655 14.0088 15.7468 14.038C13.8975 14.0978 12.1736 15.1491 11.2739 16.7659C9.33986 20.1143 10.7825 25.0354 12.6351 27.742C13.562 29.0673 14.6452 30.5478 16.0627 30.4953C17.4498 30.4377 17.9678 29.6108 19.6421 29.6108C21.3009 29.6108 21.7869 30.4953 23.2331 30.4619C24.7215 30.4377 25.6592 29.1306 26.5536 27.7927C27.2196 26.8484 27.732 25.8047 28.072 24.7002C26.3229 23.9604 25.1548 22.2002 25.1528 20.3011Z" fill="white"/>
<path d="M22.4211 12.2113C23.2326 11.2371 23.6325 9.98494 23.5356 8.7207C22.2958 8.85092 21.1505 9.44348 20.3281 10.3803C19.5238 11.2956 19.1052 12.5258 19.1843 13.7417C20.4246 13.7545 21.6439 13.178 22.4211 12.2113Z" fill="white"/>
</svg>
