<svg width="140" height="32" viewBox="0 0 140 32" fill="none" xmlns="http://www.w3.org/2000/svg">
<path fill-rule="evenodd" clip-rule="evenodd" d="M121.033 20.3163C121.033 19.5826 121.439 18.7125 121.911 18.3806C123.799 17.0531 128.194 17.9053 128.194 20.3163C128.194 22.5174 123.952 23.6242 122.015 22.286C121.496 21.9272 121.033 21.1612 121.033 20.3163ZM119.243 12.3657C119.243 13.32 119.97 14.0681 120.894 14.0681C121.303 14.0681 124.557 11.6194 127.401 13.4653C128.281 14.0358 128.193 14.3982 128.193 15.7723C125.692 14.0465 121.651 14.2959 119.617 16.1598C117.367 18.2228 117.558 22.7004 119.65 24.4351C122.119 26.4855 125.737 26.5053 128.33 24.7149C128.501 25.3733 129.167 25.8935 129.915 25.7751C130.605 25.6657 131.222 25.0289 131.222 24.2898V14.3515C131.222 13.6052 130.838 12.7962 130.537 12.3621C127.444 7.89343 119.243 9.78959 119.243 12.3657Z" fill="white"/>
<path fill-rule="evenodd" clip-rule="evenodd" d="M90.3242 17.9008C90.3242 12.7092 96.0651 10.6534 98.2699 15.6727C100.482 20.7065 94.123 25.5644 91.1212 20.6293C90.7244 19.9781 90.3259 18.9108 90.3259 17.899L90.3242 17.9008ZM98.7241 11.3709C98.3361 11.2633 98.1742 11.0588 97.8801 10.822C96.1051 9.39944 93.5557 9.41917 91.6085 10.422C87.6617 12.4527 85.8519 18.5843 89.2783 23.0959C91.1021 25.4944 94.4067 26.5151 97.1684 25.098C97.8819 24.732 98.1481 24.4037 98.7241 24.0055C98.7729 26.2514 101.479 25.8245 101.479 24.1472V7.39564C101.479 5.65913 98.6998 4.89851 98.7189 7.81541C98.7259 8.99939 98.7241 10.1852 98.7241 11.3709Z" fill="white"/>
<path fill-rule="evenodd" clip-rule="evenodd" d="M111.807 15.7722H106.712V9.09888H111.807C115.501 9.09888 115.649 15.7722 111.807 15.7722ZM103.682 7.82161V23.7211C103.682 26.7797 106.712 26.0747 106.712 24.4314V19.0371C110.324 19.0371 113.566 19.5753 115.839 17.2325C119.636 13.3164 117.541 5.83575 111.255 5.83575H105.61C104.404 5.83575 103.682 6.58202 103.682 7.82341V7.82161Z" fill="white"/>
<path fill-rule="evenodd" clip-rule="evenodd" d="M80.1336 13.2178C82.81 13.2178 83.2851 14.6744 84.1273 16.4827H76.829C76.9456 15.0386 78.5204 13.2178 80.1353 13.2178H80.1336ZM73.9368 17.1931C73.9368 19.5951 74.0394 20.9118 75.3933 22.9318C77.981 26.7959 82.8152 26.394 84.9766 23.6045C85.7701 22.582 86.4853 21.7083 85.6761 20.5674C84.4545 18.8453 83.0101 21.5541 82.9301 21.6366C80.513 24.1337 77.0308 21.9433 76.8307 19.4659C78.249 19.4659 85.6744 19.7279 86.3687 19.2202C86.8473 18.8704 87.063 18.3214 86.9708 17.5429C86.7168 15.4009 86.233 13.7021 84.7886 12.1145C82.1105 9.17428 77.4572 9.52947 75.1479 13.3308C74.6624 14.1309 73.9385 15.9624 73.9385 17.1949L73.9368 17.1931Z" fill="white"/>
<path fill-rule="evenodd" clip-rule="evenodd" d="M49.1476 15.3471C49.1476 18.4308 49.8924 20.8849 51.7283 22.7667C54.8154 25.9311 59.3173 26.7258 62.8638 24.5175C67.1412 21.8536 64.5014 20.3162 64.1585 20.3162C62.3905 20.3162 63.4033 20.5315 61.3481 21.8213C55.4558 25.515 49.0066 17.4782 53.7469 11.1475C55.3583 8.99662 58.663 8.19833 61.3481 9.87026C62.7577 10.7493 62.9735 11.5171 63.7444 11.5171C64.8999 11.5171 67.0211 9.73751 62.5854 7.03408C59.0893 4.90292 54.8154 5.74606 51.9354 8.71319C50.9678 9.7106 50.7138 10.1411 50.0629 11.4686C49.5356 12.5468 49.1458 13.7971 49.1458 15.3507L49.1476 15.3471Z" fill="white"/>
<path fill-rule="evenodd" clip-rule="evenodd" d="M132.188 7.82344V23.8646C132.188 26.4586 135.218 26.1482 135.218 24.4333V7.25656C135.218 5.47341 132.188 5.16486 132.188 7.82523V7.82344Z" fill="white"/>
<path fill-rule="evenodd" clip-rule="evenodd" d="M69.2539 11.9403C68.8971 10.5608 66.4991 11.0577 66.4991 12.509V24.4331C66.4991 25.8772 68.784 26.2916 69.3792 24.8475C69.8473 23.7084 69.1686 16.7624 69.7011 15.5264C70.7783 13.031 72.91 14.3836 73.9837 13.8383C75.0609 13.2929 75.5412 10.9465 72.1443 10.9465C70.7243 10.9465 70.0961 11.3573 69.2521 11.9403H69.2539Z" fill="white"/>
<path fill-rule="evenodd" clip-rule="evenodd" d="M136.182 24.2914C136.182 26.5284 139.901 27.1402 139.901 24.008C139.901 21.7799 136.182 21.7082 136.182 24.2914Z" fill="white"/>
<path fill-rule="evenodd" clip-rule="evenodd" d="M0.382812 15.921C0.382812 20.0523 2.07428 24.3828 4.78899 27.158C10.1018 32.59 17.8405 33.5551 24.2427 29.5278C24.8117 29.1708 25.734 28.4604 26.1812 28.0047C30.0097 24.094 29.3554 23.0787 29.3554 17.4709V10.7079C29.3554 8.54799 30.0306 7.25458 30.9737 6.03651C32.1727 4.49016 34.0069 3.9466 36.0534 3.9466C41.0251 3.9466 44.1557 10.7097 40.1916 14.9756C38.7959 16.4771 36.384 17.2969 34.1966 16.7067C33.4883 16.5147 33.4866 16.3443 32.6356 16.3443C30.9059 16.3443 29.9105 19.2433 32.2406 20.1313C35.8846 21.5198 39.4294 20.5493 42.3198 18.1544C48.8195 12.7709 45.5897 0 35.6427 0C33.9669 0 32.0596 0.581227 30.9511 1.22165C28.4383 2.67472 26.5119 5.07856 25.8837 8.11386C25.5008 9.96159 25.6644 17.5534 25.6661 20.0057C25.6679 22.9477 25.0745 24.4044 22.7165 25.9812C18.0667 29.0901 11.7654 28.8999 7.86566 24.8313C6.92944 23.8554 5.99321 22.7414 5.3911 21.4659C3.48384 17.4225 3.85103 12.6507 6.33951 8.95879C6.60576 8.56234 6.70321 8.52467 6.9625 8.19279C7.22701 7.85554 7.27225 7.76046 7.59071 7.43038C9.12556 5.83739 12.1361 3.9466 15.1432 3.9466C16.7685 3.9466 17.4054 3.87126 19.029 4.30897C20.2454 4.63726 20.0853 4.93326 21.5662 4.93326C22.8174 4.93326 23.0698 3.65779 23.0698 2.6801C23.0698 0.764206 18.152 0.00358782 15.9628 0.00358782C13.3368 0.00358782 11.4957 0.633251 9.65458 1.39028C8.73228 1.77059 7.96833 2.25136 7.18699 2.79133C6.7763 3.07476 6.48046 3.3295 6.10284 3.64702C5.88532 3.83 5.81745 3.93225 5.60863 4.1242C4.38005 5.25257 3.33419 6.44552 2.52326 7.98649C2.2396 8.52646 2.0534 8.74711 1.80803 9.36242C1.02669 11.3178 0.384553 13.2211 0.384553 15.9246L0.382812 15.921Z" fill="white"/>
</svg>
