<svg width="53" height="46" viewBox="0 0 53 46" fill="none" xmlns="http://www.w3.org/2000/svg">
<g clip-path="url(#clip0_4390_5797)">
<path opacity="0.9" d="M39.8963 0C37.4268 -2.54156e-06 35.0128 0.731212 32.9594 2.10117C30.9061 3.47113 29.3057 5.4183 28.3606 7.69646C27.4156 9.97462 27.1683 12.4814 27.6501 14.8999C28.1319 17.3184 29.321 19.5399 31.0673 21.2836C32.8135 23.0272 35.0383 24.2146 37.4604 24.6957C39.8825 25.1767 42.393 24.9298 44.6746 23.9862C46.9561 23.0426 48.9062 21.4446 50.2782 19.3943C51.6502 17.344 52.3825 14.9335 52.3825 12.4676C52.3825 9.16101 51.067 5.98982 48.7254 3.65169C46.3838 1.31356 43.2079 2.84012e-06 39.8963 0ZM45.5061 8.45958L38.0621 17.1481C37.9795 17.2444 37.8771 17.3218 37.7617 17.3748C37.6464 17.4279 37.5209 17.4554 37.3939 17.4554C37.38 17.4554 37.366 17.455 37.3521 17.4543C37.2182 17.448 37.0875 17.4112 36.97 17.3467C36.8525 17.2822 36.7514 17.1917 36.6743 17.0822L33.8749 13.1061C33.8083 13.0117 33.7609 12.9052 33.7356 12.7926C33.7102 12.68 33.7073 12.5635 33.7271 12.4497C33.7469 12.336 33.7889 12.2273 33.8508 12.1298C33.9127 12.0323 33.9933 11.9479 34.0879 11.8816C34.1824 11.8152 34.2892 11.7681 34.402 11.7429C34.5148 11.7177 34.6315 11.715 34.7454 11.735C34.8592 11.7549 34.9681 11.797 35.0656 11.859C35.1632 11.9209 35.2475 12.0014 35.3139 12.096L37.4618 15.1468L44.1695 7.31777C44.3211 7.14079 44.537 7.03121 44.7695 7.01313C45.0021 6.99505 45.2323 7.06995 45.4096 7.22137C45.5868 7.37278 45.6965 7.5883 45.7146 7.82051C45.7327 8.05273 45.6577 8.2826 45.5061 8.45958Z" fill="#FB7F58"/>
<g style="mix-blend-mode:multiply">
<path d="M22.0062 2.95703C16.2733 2.96322 10.7769 5.24001 6.72302 9.28783C2.66918 13.3356 0.389013 18.8239 0.382812 24.5484C1.46398 53.1569 42.5485 53.1443 43.6297 24.5484C43.6235 18.8239 41.3433 13.3356 37.2895 9.28783C33.2356 5.24001 27.7392 2.96322 22.0062 2.95703ZM22.0062 6.55558C25.6227 6.55949 29.1544 7.64897 32.1428 9.68257C35.1312 11.7162 37.4383 14.5999 38.7644 17.9594L25.6534 20.5774C23.1613 21.074 20.5954 21.074 18.1032 20.5774L5.23726 18.008C6.5566 14.6379 8.8621 11.7427 11.8532 9.69992C14.8444 7.65712 18.3824 6.5614 22.0062 6.55558ZM3.98671 24.7409L11.4738 26.2361C12.5113 26.4433 13.4903 26.8761 14.3414 27.5036C15.1926 28.1311 15.8949 28.938 16.3986 29.867L17.5248 31.9416C18.0933 32.9917 18.3918 34.1665 18.3933 35.3602V42.1813C14.3609 41.3506 10.7342 39.1679 8.11531 35.9955C5.4964 32.8232 4.04277 28.8519 3.99571 24.7409L3.98671 24.7409ZM25.6102 42.1813V35.3674C25.6117 34.1737 25.9101 32.9989 26.4787 31.9488L27.6049 29.8742C28.1086 28.9452 28.8109 28.1383 29.6621 27.5108C30.5132 26.8833 31.4922 26.4505 32.5297 26.2433L40.0258 24.7409C39.9778 28.8544 38.5216 32.8276 35.8992 36.0004C33.2767 39.1731 29.6459 41.3542 25.6102 42.1813Z" fill="#ECC8C3"/>
</g>
</g>
<defs>
<clipPath id="clip0_4390_5797">
<rect width="52" height="46" fill="white" transform="translate(0.382812)"/>
</clipPath>
</defs>
</svg>
