<svg width="53" height="42" viewBox="0 0 53 42" fill="none" xmlns="http://www.w3.org/2000/svg">
<g clip-path="url(#clip0_4390_5826)">
<path d="M7.01369 5.43464L0.554841 31.473C-0.151186 34.3193 1.38058 37.1685 3.9665 37.819L8.46793 38.9514L20.0567 41.8665C22.6426 42.517 25.3249 40.7279 26.031 37.8816L32.4898 11.8432C33.1958 8.99696 31.664 6.14769 29.0781 5.49719L17.4894 2.582L17.3936 2.5579L12.9879 1.44964C10.3062 0.775048 7.71972 2.58833 7.01369 5.43464Z" fill="#A5CAEC"/>
<g style="mix-blend-mode:multiply" opacity="0.85">
<path d="M18.1976 12.7055L27.3804 37.9004C28.3842 40.6546 31.2409 42.1451 33.7431 41.2202L38.0987 39.6103L49.3121 35.4656C51.8142 34.5408 53.0352 31.5432 52.0314 28.789L42.8486 3.59404C41.8448 0.839971 38.9881 -0.650555 36.4859 0.27428L25.2725 4.41893L25.1799 4.45318L20.9169 6.02884C18.3221 6.98794 17.1938 9.95136 18.1976 12.7055Z" fill="#138BF9"/>
</g>
</g>
<defs>
<clipPath id="clip0_4390_5826">
<rect width="52" height="42" fill="white" transform="translate(0.382812)"/>
</clipPath>
</defs>
</svg>
