<svg width="136" height="40" viewBox="0 0 136 40" fill="none" xmlns="http://www.w3.org/2000/svg">
<rect x="0.882812" y="0.5" width="134" height="39" rx="4.5" fill="black"/>
<rect x="0.882812" y="0.5" width="134" height="39" rx="4.5" stroke="#A6A6A6"/>
<path d="M68.5198 21.7509C66.1678 21.7509 64.2508 23.5399 64.2508 26.0039C64.2508 28.4529 66.1678 30.2569 68.5198 30.2569C70.8728 30.2569 72.7898 28.4529 72.7898 26.0039C72.7888 23.5399 70.8718 21.7509 68.5198 21.7509ZM68.5198 28.5829C67.2308 28.5829 66.1198 27.5199 66.1198 26.0049C66.1198 24.4739 67.2318 23.4269 68.5198 23.4269C69.8088 23.4269 70.9198 24.4739 70.9198 26.0049C70.9198 27.5189 69.8088 28.5829 68.5198 28.5829ZM59.2058 21.7509C56.8538 21.7509 54.9368 23.5399 54.9368 26.0039C54.9368 28.4529 56.8538 30.2569 59.2058 30.2569C61.5588 30.2569 63.4758 28.4529 63.4758 26.0039C63.4758 23.5399 61.5588 21.7509 59.2058 21.7509ZM59.2058 28.5829C57.9168 28.5829 56.8058 27.5199 56.8058 26.0049C56.8058 24.4739 57.9178 23.4269 59.2058 23.4269C60.4948 23.4269 61.6058 24.4739 61.6058 26.0049C61.6068 27.5189 60.4948 28.5829 59.2058 28.5829ZM48.1278 23.0569V24.8609H52.4458C52.3168 25.8759 51.9788 26.6169 51.4628 27.1319C50.8348 27.7599 49.8518 28.4529 48.1278 28.4529C45.4698 28.4529 43.3918 26.3099 43.3918 23.6519C43.3918 20.9939 45.4698 18.8509 48.1278 18.8509C49.5618 18.8509 50.6088 19.4149 51.3818 20.1399L52.6548 18.8669C51.5748 17.8359 50.1418 17.0469 48.1278 17.0469C44.4868 17.0469 41.4258 20.0109 41.4258 23.6519C41.4258 27.2929 44.4868 30.2569 48.1278 30.2569C50.0928 30.2569 51.5758 29.6119 52.7348 28.4039C53.9268 27.2119 54.2978 25.5359 54.2978 24.1829C54.2978 23.7649 54.2658 23.3779 54.2008 23.0559H48.1278V23.0569ZM93.4358 24.4579C93.0818 23.5079 92.0018 21.7509 89.7948 21.7509C87.6038 21.7509 85.7828 23.4749 85.7828 26.0039C85.7828 28.3879 87.5878 30.2569 90.0038 30.2569C91.9528 30.2569 93.0808 29.0649 93.5488 28.3719L92.0988 27.4049C91.6158 28.1139 90.9548 28.5809 90.0038 28.5809C89.0538 28.5809 88.3768 28.1459 87.9418 27.2919L93.6288 24.9399L93.4358 24.4579ZM87.6358 25.8759C87.5878 24.2319 88.9088 23.3949 89.8598 23.3949C90.6008 23.3949 91.2288 23.7659 91.4388 24.2969L87.6358 25.8759ZM83.0128 29.9999H84.8808V17.4989H83.0128V29.9999ZM79.9508 22.7019H79.8868C79.4678 22.2019 78.6618 21.7509 77.6478 21.7509C75.5208 21.7509 73.5718 23.6199 73.5718 26.0209C73.5718 28.4049 75.5208 30.2579 77.6478 30.2579C78.6628 30.2579 79.4678 29.8069 79.8868 29.2919H79.9508V29.9039C79.9508 31.5309 79.0808 32.4009 77.6798 32.4009C76.5358 32.4009 75.8268 31.5799 75.5368 30.8869L73.9098 31.5639C74.3768 32.6909 75.6168 34.0769 77.6798 34.0769C79.8708 34.0769 81.7238 32.7879 81.7238 29.6459V22.0099H79.9518V22.7019H79.9508ZM77.8088 28.5829C76.5198 28.5829 75.4408 27.5029 75.4408 26.0209C75.4408 24.5219 76.5198 23.4269 77.8088 23.4269C79.0808 23.4269 80.0798 24.5219 80.0798 26.0209C80.0798 27.5029 79.0808 28.5829 77.8088 28.5829ZM102.19 17.4989H97.7188V29.9999H99.5838V25.2639H102.189C104.257 25.2639 106.291 23.7669 106.291 21.3819C106.291 18.9969 104.258 17.4989 102.19 17.4989ZM102.238 23.5239H99.5838V19.2389H102.238C103.633 19.2389 104.425 20.3939 104.425 21.3819C104.425 22.3499 103.633 23.5239 102.238 23.5239ZM113.77 21.7289C112.419 21.7289 111.02 22.3239 110.441 23.6429L112.097 24.3339C112.451 23.6429 113.111 23.4169 113.802 23.4169C114.767 23.4169 115.748 23.9959 115.764 25.0249V25.1539C115.426 24.9609 114.702 24.6719 113.818 24.6719C112.033 24.6719 110.215 25.6529 110.215 27.4859C110.215 29.1589 111.679 30.2359 113.319 30.2359C114.573 30.2359 115.265 29.6729 115.699 29.0129H115.763V29.9779H117.565V25.1849C117.566 22.9669 115.908 21.7289 113.77 21.7289ZM113.544 28.5799C112.934 28.5799 112.081 28.2739 112.081 27.5179C112.081 26.5529 113.143 26.1829 114.06 26.1829C114.879 26.1829 115.266 26.3599 115.764 26.6009C115.619 27.7599 114.622 28.5799 113.544 28.5799ZM124.127 22.0019L121.988 27.4219H121.924L119.704 22.0019H117.694L121.023 29.5769L119.125 33.7909H121.071L126.202 22.0019H124.127ZM107.321 29.9999H109.186V17.4989H107.321V29.9999Z" fill="white"/>
<path d="M47.8004 10.2432C47.8004 11.0812 47.5524 11.7482 47.0554 12.2462C46.4914 12.8382 45.7554 13.1342 44.8514 13.1342C43.9854 13.1342 43.2484 12.8342 42.6434 12.2342C42.0374 11.6332 41.7344 10.8892 41.7344 10.0012C41.7344 9.11219 42.0374 8.36819 42.6434 7.76819C43.2484 7.16719 43.9854 6.86719 44.8514 6.86719C45.2814 6.86719 45.6924 6.95119 46.0824 7.11819C46.4734 7.28619 46.7864 7.50919 47.0204 7.78819L46.4934 8.31619C46.0964 7.84119 45.5494 7.60419 44.8504 7.60419C44.2184 7.60419 43.6724 7.82619 43.2114 8.27019C42.7504 8.71419 42.5204 9.29119 42.5204 10.0002C42.5204 10.7092 42.7504 11.2862 43.2114 11.7302C43.6724 12.1742 44.2184 12.3962 44.8504 12.3962C45.5204 12.3962 46.0794 12.1732 46.5264 11.7262C46.8164 11.4352 46.9844 11.0302 47.0294 10.5112H44.8504V9.79019H47.7574C47.7874 9.94719 47.8004 10.0982 47.8004 10.2432Z" fill="white"/>
<path d="M52.4105 7.73724H49.6785V9.63924H52.1425V10.3602H49.6785V12.2622H52.4105V13.0002H48.9075V7.00024H52.4105V7.73724Z" fill="white"/>
<path d="M55.6614 13.0002H54.8904V7.73724H53.2144V7.00024H57.3374V7.73724H55.6614V13.0002Z" fill="white"/>
<path d="M60.3203 13.0002V7.00024H61.0913V13.0002H60.3203Z" fill="white"/>
<path d="M64.5105 13.0002H63.7395V7.73724H62.0635V7.00024H66.1865V7.73724H64.5105V13.0002Z" fill="white"/>
<path d="M73.9913 12.2252C73.4013 12.8312 72.6682 13.1342 71.7912 13.1342C70.9142 13.1342 70.1813 12.8312 69.5923 12.2252C69.0023 11.6192 68.7082 10.8772 68.7082 10.0002C68.7082 9.12323 69.0023 8.38123 69.5923 7.77523C70.1813 7.16923 70.9142 6.86523 71.7912 6.86523C72.6632 6.86523 73.3953 7.17023 73.9873 7.77923C74.5793 8.38823 74.8752 9.12823 74.8752 10.0002C74.8752 10.8772 74.5803 11.6192 73.9913 12.2252ZM70.1613 11.7222C70.6053 12.1722 71.1482 12.3962 71.7912 12.3962C72.4342 12.3962 72.9783 12.1712 73.4213 11.7222C73.8652 11.2722 74.0883 10.6982 74.0883 10.0002C74.0883 9.30223 73.8652 8.72823 73.4213 8.27823C72.9783 7.82823 72.4342 7.60423 71.7912 7.60423C71.1482 7.60423 70.6053 7.82923 70.1613 8.27823C69.7183 8.72823 69.4953 9.30223 69.4953 10.0002C69.4953 10.6982 69.7183 11.2722 70.1613 11.7222Z" fill="white"/>
<path d="M75.9573 13.0002V7.00024H76.8953L79.8113 11.6672H79.8443L79.8113 10.5112V7.00024H80.5823V13.0002H79.7773L76.7263 8.10625H76.6933L76.7263 9.26224V13.0002H75.9573Z" fill="white"/>
<path d="M47.8004 10.2432C47.8004 11.0812 47.5524 11.7482 47.0554 12.2462C46.4914 12.8382 45.7554 13.1342 44.8514 13.1342C43.9854 13.1342 43.2484 12.8342 42.6434 12.2342C42.0374 11.6332 41.7344 10.8892 41.7344 10.0012C41.7344 9.11219 42.0374 8.36819 42.6434 7.76819C43.2484 7.16719 43.9854 6.86719 44.8514 6.86719C45.2814 6.86719 45.6924 6.95119 46.0824 7.11819C46.4734 7.28619 46.7864 7.50919 47.0204 7.78819L46.4934 8.31619C46.0964 7.84119 45.5494 7.60419 44.8504 7.60419C44.2184 7.60419 43.6724 7.82619 43.2114 8.27019C42.7504 8.71419 42.5204 9.29119 42.5204 10.0002C42.5204 10.7092 42.7504 11.2862 43.2114 11.7302C43.6724 12.1742 44.2184 12.3962 44.8504 12.3962C45.5204 12.3962 46.0794 12.1732 46.5264 11.7262C46.8164 11.4352 46.9844 11.0302 47.0294 10.5112H44.8504V9.79019H47.7574C47.7874 9.94719 47.8004 10.0982 47.8004 10.2432Z" stroke="white" stroke-width="0.2" stroke-miterlimit="10"/>
<path d="M52.4105 7.73724H49.6785V9.63924H52.1425V10.3602H49.6785V12.2622H52.4105V13.0002H48.9075V7.00024H52.4105V7.73724Z" stroke="white" stroke-width="0.2" stroke-miterlimit="10"/>
<path d="M55.6614 13.0002H54.8904V7.73724H53.2144V7.00024H57.3374V7.73724H55.6614V13.0002Z" stroke="white" stroke-width="0.2" stroke-miterlimit="10"/>
<path d="M60.3203 13.0002V7.00024H61.0913V13.0002H60.3203Z" stroke="white" stroke-width="0.2" stroke-miterlimit="10"/>
<path d="M64.5105 13.0002H63.7395V7.73724H62.0635V7.00024H66.1865V7.73724H64.5105V13.0002Z" stroke="white" stroke-width="0.2" stroke-miterlimit="10"/>
<path d="M73.9913 12.2252C73.4013 12.8312 72.6682 13.1342 71.7912 13.1342C70.9142 13.1342 70.1813 12.8312 69.5923 12.2252C69.0023 11.6192 68.7082 10.8772 68.7082 10.0002C68.7082 9.12323 69.0023 8.38123 69.5923 7.77523C70.1813 7.16923 70.9142 6.86523 71.7912 6.86523C72.6632 6.86523 73.3953 7.17023 73.9873 7.77923C74.5793 8.38823 74.8752 9.12823 74.8752 10.0002C74.8752 10.8772 74.5803 11.6192 73.9913 12.2252ZM70.1613 11.7222C70.6053 12.1722 71.1482 12.3962 71.7912 12.3962C72.4342 12.3962 72.9783 12.1712 73.4213 11.7222C73.8652 11.2722 74.0883 10.6982 74.0883 10.0002C74.0883 9.30223 73.8652 8.72823 73.4213 8.27823C72.9783 7.82823 72.4342 7.60423 71.7912 7.60423C71.1482 7.60423 70.6053 7.82923 70.1613 8.27823C69.7183 8.72823 69.4953 9.30223 69.4953 10.0002C69.4953 10.6982 69.7183 11.2722 70.1613 11.7222Z" stroke="white" stroke-width="0.2" stroke-miterlimit="10"/>
<path d="M75.9573 13.0002V7.00024H76.8953L79.8113 11.6672H79.8443L79.8113 10.5112V7.00024H80.5823V13.0002H79.7773L76.7263 8.10625H76.6933L76.7263 9.26224V13.0002H75.9573Z" stroke="white" stroke-width="0.2" stroke-miterlimit="10"/>
<g filter="url(#filter0_ii_4390_11447)">
<path d="M10.8185 7.53784C10.5275 7.84584 10.3555 8.32384 10.3555 8.94284V31.0588C10.3555 31.6788 10.5275 32.1558 10.8185 32.4638L10.8925 32.5358L23.2815 20.1468V20.0008V19.8548L10.8925 7.46484L10.8185 7.53784Z" fill="url(#paint0_linear_4390_11447)"/>
<path d="M27.4102 24.2776L23.2812 20.1466V20.0006V19.8546L27.4112 15.7246L27.5043 15.7776L32.3972 18.5576C33.7942 19.3516 33.7942 20.6506 32.3972 21.4456L27.5043 24.2256L27.4102 24.2776Z" fill="url(#paint1_linear_4390_11447)"/>
<g filter="url(#filter1_i_4390_11447)">
<path d="M27.5044 24.225L23.2804 20.001L10.8184 32.464C11.2784 32.952 12.0394 33.012 12.8964 32.526L27.5044 24.225Z" fill="url(#paint2_linear_4390_11447)"/>
</g>
<path d="M27.5044 15.7767L12.8964 7.4767C12.0394 6.9897 11.2784 7.0507 10.8184 7.5387L23.2814 20.0017L27.5044 15.7767Z" fill="url(#paint3_linear_4390_11447)"/>
</g>
<defs>
<filter id="filter0_ii_4390_11447" x="10.3555" y="7.14062" width="23.0894" height="25.7207" filterUnits="userSpaceOnUse" color-interpolation-filters="sRGB">
<feFlood flood-opacity="0" result="BackgroundImageFix"/>
<feBlend mode="normal" in="SourceGraphic" in2="BackgroundImageFix" result="shape"/>
<feColorMatrix in="SourceAlpha" type="matrix" values="0 0 0 0 0 0 0 0 0 0 0 0 0 0 0 0 0 0 127 0" result="hardAlpha"/>
<feOffset dy="-0.15"/>
<feComposite in2="hardAlpha" operator="arithmetic" k2="-1" k3="1"/>
<feColorMatrix type="matrix" values="0 0 0 0 0 0 0 0 0 0 0 0 0 0 0 0 0 0 0.12 0"/>
<feBlend mode="normal" in2="shape" result="effect1_innerShadow_4390_11447"/>
<feColorMatrix in="SourceAlpha" type="matrix" values="0 0 0 0 0 0 0 0 0 0 0 0 0 0 0 0 0 0 127 0" result="hardAlpha"/>
<feOffset dy="0.15"/>
<feComposite in2="hardAlpha" operator="arithmetic" k2="-1" k3="1"/>
<feColorMatrix type="matrix" values="0 0 0 0 1 0 0 0 0 1 0 0 0 0 1 0 0 0 0.25 0"/>
<feBlend mode="normal" in2="effect1_innerShadow_4390_11447" result="effect2_innerShadow_4390_11447"/>
</filter>
<filter id="filter1_i_4390_11447" x="10.8184" y="20.001" width="16.686" height="12.8604" filterUnits="userSpaceOnUse" color-interpolation-filters="sRGB">
<feFlood flood-opacity="0" result="BackgroundImageFix"/>
<feBlend mode="normal" in="SourceGraphic" in2="BackgroundImageFix" result="shape"/>
<feColorMatrix in="SourceAlpha" type="matrix" values="0 0 0 0 0 0 0 0 0 0 0 0 0 0 0 0 0 0 127 0" result="hardAlpha"/>
<feOffset dy="-0.15"/>
<feComposite in2="hardAlpha" operator="arithmetic" k2="-1" k3="1"/>
<feColorMatrix type="matrix" values="0 0 0 0 0 0 0 0 0 0 0 0 0 0 0 0 0 0 0.08 0"/>
<feBlend mode="normal" in2="shape" result="effect1_innerShadow_4390_11447"/>
</filter>
<linearGradient id="paint0_linear_4390_11447" x1="22.1833" y1="8.70884" x2="5.40127" y2="25.4908" gradientUnits="userSpaceOnUse">
<stop stop-color="#00A0FF"/>
<stop offset="0.0066" stop-color="#00A1FF"/>
<stop offset="0.2601" stop-color="#00BEFF"/>
<stop offset="0.5122" stop-color="#00D2FF"/>
<stop offset="0.7604" stop-color="#00DFFF"/>
<stop offset="1" stop-color="#00E3FF"/>
</linearGradient>
<linearGradient id="paint1_linear_4390_11447" x1="34.2157" y1="20.0006" x2="10.0199" y2="20.0006" gradientUnits="userSpaceOnUse">
<stop stop-color="#FFE000"/>
<stop offset="0.4087" stop-color="#FFBD00"/>
<stop offset="0.7754" stop-color="#FFA500"/>
<stop offset="1" stop-color="#FF9C00"/>
</linearGradient>
<linearGradient id="paint2_linear_4390_11447" x1="25.2105" y1="22.2949" x2="2.45196" y2="45.0534" gradientUnits="userSpaceOnUse">
<stop stop-color="#FF3A44"/>
<stop offset="1" stop-color="#C31162"/>
</linearGradient>
<linearGradient id="paint3_linear_4390_11447" x1="7.67976" y1="0.176501" x2="17.8421" y2="10.3388" gradientUnits="userSpaceOnUse">
<stop stop-color="#32A071"/>
<stop offset="0.0685" stop-color="#2DA771"/>
<stop offset="0.4762" stop-color="#15CF74"/>
<stop offset="0.8009" stop-color="#06E775"/>
<stop offset="1" stop-color="#00F076"/>
</linearGradient>
</defs>
</svg>
