<svg width="43" height="41" viewBox="0 0 43 41" fill="none" xmlns="http://www.w3.org/2000/svg">
<g clip-path="url(#clip0_4390_5840)">
<g style="mix-blend-mode:multiply" opacity="0.85">
<path d="M41.673 10.6426L31.425 0.672888C30.9789 0.238893 30.378 -0.00292331 29.753 2.66769e-05C29.1281 0.00297666 28.5296 0.250454 28.0877 0.68864L17.6886 10.9998C17.4684 11.2181 17.2937 11.4773 17.1746 11.7625C17.0554 12.0478 16.9941 12.3535 16.9941 12.6623V38.6488C16.9941 39.2724 17.244 39.8704 17.6886 40.3113C18.1333 40.7523 18.7364 41 19.3653 41H40.0124C40.6413 41 41.2444 40.7523 41.6891 40.3113C42.1338 39.8704 42.3836 39.2724 42.3836 38.6488V12.3209C42.3836 12.0083 42.3207 11.6989 42.1987 11.4108C42.0767 11.1226 41.898 10.8614 41.673 10.6426ZM29.7 14.4019C28.9773 14.4019 28.2707 14.1894 27.6698 13.7912C27.0689 13.3931 26.6006 12.8272 26.324 12.1652C26.0475 11.5031 25.975 10.7745 26.116 10.0717C26.257 9.36884 26.605 8.72322 27.1161 8.21649C27.6271 7.70976 28.2783 7.36468 28.9872 7.22487C29.696 7.08506 30.4307 7.15682 31.0985 7.43106C31.7662 7.7053 32.3369 8.16971 32.7384 8.76557C33.1399 9.36142 33.3543 10.062 33.3543 10.7786C33.3542 11.7395 32.9693 12.6611 32.284 13.3406C31.5987 14.0202 30.6692 14.4019 29.7 14.4019Z" fill="#7C48EC"/>
</g>
<g style="mix-blend-mode:multiply">
<path d="M38.4482 18.9981L38.1422 4.76589C38.1289 4.14634 37.8694 3.55706 37.4202 3.12619C36.9711 2.69531 36.3685 2.4577 35.7436 2.46501L21.0381 2.63704C20.7267 2.64067 20.4191 2.70509 20.1329 2.82661C19.8466 2.94812 19.5873 3.12437 19.3698 3.34527L1.05774 21.936C0.618344 22.3821 0.375566 22.983 0.382977 23.6065C0.390389 24.23 0.6473 24.8251 1.09718 25.2608L15.8682 39.5653C16.3181 40.001 16.9241 40.2416 17.5529 40.2342C18.1818 40.2269 18.7819 39.9721 19.2213 39.5261L37.7739 20.691C37.9942 20.4674 38.1673 20.2026 38.2831 19.9119C38.3988 19.6212 38.455 19.3106 38.4482 18.9981ZM27.2337 13.3925C26.7166 12.8918 26.3609 12.2503 26.2116 11.5492C26.0622 10.848 26.126 10.1187 26.3946 9.45341C26.6633 8.78814 27.1249 8.21681 27.721 7.81168C28.3172 7.40654 29.0212 7.18579 29.7439 7.17734C30.4665 7.16889 31.1755 7.37312 31.7811 7.7642C32.3868 8.15528 32.8619 8.71564 33.1463 9.37443C33.4307 10.0332 33.5117 10.7609 33.379 11.4653C33.2464 12.1698 32.9062 12.8194 32.4012 13.3321C31.724 14.0196 30.7991 14.4121 29.83 14.4235C28.8609 14.4348 27.927 14.064 27.2337 13.3925Z" fill="#BBCCF3"/>
</g>
</g>
<defs>
<clipPath id="clip0_4390_5840">
<rect width="42" height="41" fill="white" transform="translate(0.382812)"/>
</clipPath>
</defs>
</svg>
