<svg width="17" height="16" viewBox="0 0 17 16" fill="none" xmlns="http://www.w3.org/2000/svg">
<rect x="0.382812" width="16" height="16" rx="8" fill="#614BE4"/>
<path fill-rule="evenodd" clip-rule="evenodd" d="M9.42828 5.6326C9.63119 5.4453 9.94752 5.45795 10.1348 5.66086L11.7502 7.41084C11.927 7.60237 11.927 7.89759 11.7502 8.08912L10.1348 9.83914C9.94753 10.0421 9.6312 10.0547 9.42829 9.86741C9.22538 9.68011 9.21272 9.36378 9.40002 9.16087L10.2408 8.24998L5.38281 8.24998C5.10667 8.24998 4.88281 8.02613 4.88281 7.74998C4.88281 7.47384 5.10667 7.24998 5.38281 7.24998L10.2408 7.24998L9.40003 6.33915C9.21272 6.13624 9.22538 5.81991 9.42828 5.6326Z" fill="#FCFCFD"/>
</svg>
