<svg width="44" height="50" viewBox="0 0 44 50" fill="none" xmlns="http://www.w3.org/2000/svg">
<g clip-path="url(#clip0_4390_5812)">
<path d="M24.9967 12.0805H21.711V3.69127H23.5487C24.0361 3.69128 24.5036 3.49684 24.8482 3.15073C25.1928 2.80462 25.3865 2.33518 25.3865 1.84569C25.3865 1.35619 25.1928 0.886699 24.8482 0.540577C24.5036 0.194456 24.0361 4.82249e-06 23.5487 0H6.6198C6.13242 4.82249e-06 5.66498 0.194456 5.32034 0.540577C4.9757 0.886699 4.78208 1.35614 4.78206 1.84564C4.78208 2.33513 4.9757 2.80462 5.32034 3.15073C5.66498 3.49684 6.13242 3.69128 6.6198 3.69127H8.45755V12.0805H5.17205C3.90189 12.0805 2.68377 12.5873 1.78562 13.4893C0.887468 14.3913 0.382835 15.6147 0.382813 16.8904V40.604C0.382549 41.4703 0.615291 42.3205 1.05642 43.0649C1.49754 43.8093 2.13069 44.4203 2.88896 44.8331V47.707C2.88896 48.3151 3.12948 48.8983 3.55765 49.3283C3.98581 49.7584 4.56654 50 5.17205 50C5.77757 50 6.35829 49.7584 6.78646 49.3283C7.21463 48.8983 7.45515 48.3151 7.45515 47.707V45.4139H22.7136V47.7069C22.7136 48.3151 22.9542 48.8983 23.3823 49.3283C23.8105 49.7584 24.3912 49.9999 24.9967 49.9999C25.6022 49.9999 26.1829 49.7584 26.6111 49.3283C27.0393 48.8983 27.2798 48.3151 27.2798 47.7069V44.8331C28.0381 44.4202 28.6711 43.8093 29.1122 43.0649C29.5533 42.3205 29.786 41.4703 29.7857 40.604V16.8904C29.7857 16.2588 29.6619 15.6333 29.4212 15.0497C29.1806 14.4662 28.8278 13.936 28.3831 13.4893C27.9384 13.0427 27.4104 12.6884 26.8294 12.4467C26.2484 12.2049 25.6256 12.0805 24.9967 12.0805ZM11.0842 3.69127H19.0844V12.0805H11.0842V3.69127Z" fill="#D3C1E6"/>
</g>
<defs>
<clipPath id="clip0_4390_5812">
<rect width="43" height="50" fill="white" transform="translate(0.382812)"/>
</clipPath>
</defs>
</svg>
